<svg id="Capa_1" enable-background="new 0 0 501 501" height="512" viewBox="0 0 501 501" width="512" xmlns="http://www.w3.org/2000/svg"><g><path d="m501 256c0 135.31-109.69 245-245 245s-245-109.69-245-245 109.69-245 245-245 245 109.69 245 245z" fill="#3d4ec6"/><path d="m340 170c0 93.888-76.112 170-170 170s-170-76.112-170-170 76.112-170 170-170 170 76.112 170 170z" fill="#8cc5db"/><path d="m339.996 168.829c.441 65.459-36.117 122.42-89.996 151.209v-27.337c40.036-26.157 66.486-71.378 66.46-122.776-.04-80.722-67.701-147.429-148.415-146.373-66.612.872-122.495 46.212-139.322 107.691-1.41 5.15-6.036 8.757-11.376 8.757-7.736 0-13.413-7.346-11.379-14.81 19.663-72.147 85.653-125.19 164.031-125.19 93.72 0 169.366 75.111 169.997 168.829z" fill="#c0dfeb"/><path d="m316.46 170c0 80.888-65.573 146.46-146.46 146.46s-146.46-65.572-146.46-146.46 65.572-146.46 146.46-146.46 146.46 65.572 146.46 146.46z" fill="#7fbed7"/><path d="m293.031 249.492c-26.092 40.301-71.447 66.968-123.031 66.968-80.888 0-146.46-65.573-146.46-146.46 0-51.584 26.668-96.939 66.969-123.031-14.823 22.894-23.43 50.187-23.43 79.491 0 80.888 65.573 146.46 146.46 146.46 29.305.001 56.598-8.606 79.492-23.428z" fill="#58aacb"/><path d="m253.273 161.207-36.184 94.984c-3.048 8-12.736 11.097-19.859 6.348-3.225-2.15-5.355-5.596-5.835-9.442l-3.456-27.645s-.429-13.976-6.011-24.719c-5.067-9.751-18.986-9.852-23.856 0-4.527 9.16-5.912 23.926-5.912 23.926l-3.555 28.439c-.481 3.846-2.611 7.292-5.835 9.442-7.123 4.749-16.812 1.651-19.859-6.348l-36.184-94.984c-5.531-14.519-6.476-30.384-2.708-45.457l7.169-28.676c3.348-13.39 16.804-21.631 30.252-18.528l13.448 3.103c5.203 1.201 10.637.66 15.554-1.423 12.721-5.389 26.395-5.389 39.116 0 4.917 2.083 10.351 2.624 15.554 1.423l13.448-3.103c13.449-3.104 26.905 5.137 30.252 18.527l7.169 28.676c3.768 15.073 2.823 30.939-2.708 45.457z" fill="#f5f0eb"/><path d="m213.071 261.774c-4.352 3.546-10.751 4.159-15.841.766-3.225-2.15-5.355-5.596-5.835-9.442l-3.456-27.646s-.428-13.976-6.011-24.719c-2.497-4.805-7.144-7.267-11.798-7.349 9.344-1.839 25.335.922 28.675 7.349 5.582 10.743 6.011 24.719 6.011 24.719l3.456 27.646c.427 3.417 2.156 6.519 4.799 8.676zm-104.469-100.567c-5.531-14.519-6.476-30.384-2.708-45.457l7.169-28.676c1.987-7.949 7.537-14.083 14.533-17.107l-6.156-1.42c-13.449-3.104-26.905 5.137-30.252 18.528l-7.169 28.676c-3.768 15.073-2.823 30.938 2.708 45.457l36.185 94.984c3.047 8 12.736 11.097 19.859 6.349 1.401-.934 2.594-2.112 3.536-3.461-.607-.874-1.121-1.838-1.521-2.887z" fill="#dcd2cd"/><path d="m211.56 162.532c-7.72-6.928-.166-18.08-3.027-39.164-1.918-14.135-6.501-18.058-3.217-23.892 3.932-6.986 15.757-10.326 23.628-6.751 15.056 6.839 10.978 36.372 10.548 39.239-2.18 14.55-10.768 33.495-20.97 33.521-3.587.01-6.26-2.323-6.962-2.953z" fill="#fff5f5"/><path d="m501 342c0 77.32-62.68 140-140 140s-140-62.68-140-140 62.68-140 140-140 140 62.68 140 140z" fill="#ff50b5"/><path d="m489 403.606c-22.79 46.431-70.538 78.394-125.751 78.394-77.32 0-140-62.68-140-140 0-42.695 19.113-80.927 49.249-106.606-9.125 18.59-14.249 39.499-14.249 61.606 0 77.32 62.68 140 140 140 34.624 0 66.312-12.57 90.751-33.394z" fill="#ff2ea6"/><path d="m500.668 383.933c-23.865 77.752-106.536 121.592-184.288 97.727s-121.592-106.536-97.727-184.288c23.143-75.399 101.586-118.907 177.217-99.708l-12.829-27.782c-1.737-3.76-.096-8.217 3.665-9.953 3.76-1.737 8.206-.117 9.953 3.665l22.338 48.376c.834 1.806.917 3.869.229 5.736-.687 1.867-2.088 3.383-3.894 4.217l-48.376 22.338c-3.633 1.678-7.915.203-9.767-3.289-.065-.123-.127-.248-.186-.376-1.736-3.76-.096-8.217 3.665-9.953l36.785-16.986c-69.526-20.7-143.133 18.634-164.46 88.116-21.438 69.845 17.944 144.109 87.788 165.547s144.109-17.944 165.547-87.788c1.215-3.96 5.41-6.185 9.371-4.969 3.96 1.215 6.184 5.41 4.969 9.37z" fill="#ffaee0"/><path d="m462.5 354.797h-9.857c.216-34.218.374-74.686-.04-79.651-.638-7.652-5.005-13.821-11.127-15.717-2.86-.886-10.295-1.985-17.548 6.914-7.676 9.417-48.824 83.872-53.491 92.331-1.281 2.323-1.24 5.151.109 7.437 1.349 2.284 3.805 3.687 6.458 3.687h60.538c-.079 11.421-.167 22.583-.254 32.619-.035 4.142 3.293 7.528 7.436 7.564h.065c4.112 0 7.463-3.315 7.499-7.436.032-3.762.141-16.585.255-32.748h9.957c4.143 0 7.5-3.357 7.5-7.5s-3.357-7.5-7.5-7.5zm-24.858 0h-47.913c17.82-32.081 41.215-73.319 45.826-78.978.626-.768 1.158-1.27 1.554-1.582.232.487.469 1.218.546 2.153.333 4.005.223 40.546-.013 78.407zm-76.172 47.275c.053 4.142-3.263 7.541-7.405 7.593-19.159.241-33.119.335-43.316.335-25.732 0-27.52-.597-28.528-.933-2.628-.876-4.584-2.839-5.367-5.384-1.432-4.653.281-6.896 8.511-17.671 6.949-9.099 19.883-26.033 41.545-56.984 6.904-9.865 11.354-18.812 13.229-26.597l.559-4.375c-.24-14.867-12.41-26.889-27.334-26.889-13.035 0-24.316 9.266-26.824 22.03-.798 4.064-4.739 6.708-8.805 5.914-4.064-.799-6.713-4.74-5.914-8.805 3.886-19.782 21.357-34.14 41.543-34.14 23.345 0 42.338 18.993 42.338 42.338 0 .317-.021.636-.061.95l-.673 5.267c-.032.25-.076.499-.134.744-2.26 9.746-7.521 20.566-15.636 32.163-21.699 31.004-34.729 48.08-41.775 57.308 13.31.117 35.839-.014 56.455-.271.031-.001.063-.001.096-.001 4.097.002 7.445 3.298 7.496 7.408z" fill="#fff5f5"/></g></svg>